<svg width="140" height="32" viewBox="0 0 140 32" fill="none" xmlns="http://www.w3.org/2000/svg">
  <path d="M45.1 23.2h-3.6V9h3.6v14.2zm16.3-14.2l-4.6 14.2h-3.8l-3.1-9.5-3 9.5h-3.8L38 9h3.8l3 9.5L47.9 9h3.5l3 9.5L57.5 9h3.9zm9.5 14.2h-3.6V9h3.6v14.2zm16.3 0h-3.6v-8.3c0-2.3-1.2-3.5-3.2-3.5-2.1 0-3.5 1.3-3.5 3.8v8h-3.6V9h3.6v2.2c1-1.6 2.7-2.5 4.9-2.5 3.4 0 5.4 2.3 5.4 5.8v8.7zm15.4 0h-3.6v-1.8c-.9 1.3-2.4 2-4.3 2-3.3 0-5.6-2.3-5.6-5.7 0-3.5 2.3-5.7 5.6-5.7 1.9 0 3.4.7 4.3 2V9h3.6v14.2zm-3.6-5.5c0-1.8-1.3-3-3.2-3-1.9 0-3.2 1.2-3.2 3s1.3 3 3.2 3c1.9 0 3.2-1.2 3.2-3zm19.7 5.5h-3.6v-8.3c0-2.3-1.2-3.5-3.2-3.5-2.1 0-3.5 1.3-3.5 3.8v8h-3.6V9h3.6v2.2c1-1.6 2.7-2.5 4.9-2.5 3.4 0 5.4 2.3 5.4 5.8v8.7z" fill="#1A1A1A"/>
  <path d="M16 0C7.2 0 0 7.2 0 16s7.2 16 16 16 16-7.2 16-16S24.8 0 16 0z" fill="url(#paint0_linear)"/>
  <path d="M23.3 12.7c-.5-.5-1.3-.5-1.8 0l-5.2 5.2-2.8-2.8c-.5-.5-1.3-.5-1.8 0-.5.5-.5 1.3 0 1.8l3.7 3.7c.2.2.5.4.9.4.3 0 .7-.1.9-.4l6.1-6.1c.5-.5.5-1.3 0-1.8z" fill="#fff"/>
  <defs>
    <linearGradient id="paint0_linear" x1="0" y1="16" x2="32" y2="16" gradientUnits="userSpaceOnUse">
      <stop stop-color="#8B2FE6"/>
      <stop offset="1" stop-color="#C233F3"/>
    </linearGradient>
  </defs>
</svg> 