<svg width="24" height="24" viewBox="0 0 24 24" fill="none" xmlns="http://www.w3.org/2000/svg">
  <path d="M17.0466 12.4966C17.0266 9.48663 19.5266 8.10663 19.6466 8.03663C18.3066 6.09663 16.2466 5.82663 15.5066 5.79663C13.7466 5.61663 12.0466 6.89663 11.1466 6.89663C10.2266 6.89663 8.84661 5.81663 7.36661 5.84663C5.44661 5.87663 3.66661 6.98663 2.71661 8.72663C0.736614 12.2966 2.21661 17.7566 4.10661 20.7166C5.05661 22.1566 6.16661 23.7766 7.64661 23.7266C9.09661 23.6766 9.65661 22.8166 11.3966 22.8166C13.1166 22.8166 13.6366 23.7266 15.1466 23.6966C16.7066 23.6766 17.6766 22.2266 18.5966 20.7766C19.6966 19.1166 20.1466 17.4866 20.1666 17.4066C20.1266 17.3966 17.0766 16.2466 17.0466 12.4966Z" fill="white"/>
  <path d="M14.4467 4.17663C15.2367 3.21663 15.7767 1.88663 15.6367 0.536621C14.4867 0.586621 13.0867 1.29662 12.2667 2.23662C11.5367 3.06662 10.8867 4.43663 11.0467 5.75663C12.3367 5.85663 13.6267 5.13663 14.4467 4.17663Z" fill="white"/>
</svg> 