<svg width="24" height="24" viewBox="0 0 24 24" fill="none" xmlns="http://www.w3.org/2000/svg">
  <path d="M1.89667 0.43335C1.63667 0.71335 1.5 1.1267 1.5 1.68003V22.32C1.5 22.8734 1.63667 23.2867 1.89667 23.5667L1.96334 23.6334L13.3333 12.2634V11.7367L1.96334 0.36665L1.89667 0.43335Z" fill="#666666"/>
  <path d="M17.6667 16.5967L13.3333 12.2633V11.7367L17.6667 7.40332L17.7533 7.45332L22.8667 10.3333C24.3667 11.1667 24.3667 12.8333 22.8667 13.6667L17.7533 16.5467L17.6667 16.5967Z" fill="#666666"/>
  <path d="M17.7533 16.5467L13.3333 12.1267L1.89667 23.5667C2.41667 24.1234 3.26667 24.19 4.21667 23.6334L17.7533 16.5467Z" fill="#666666"/>
  <path d="M17.7533 7.45335L4.21667 0.366683C3.26667 -0.190317 2.41667 -0.123317 1.89667 0.433349L13.3333 11.8733L17.7533 7.45335Z" fill="#666666"/>
</svg> 